HIERARCHY
ROOT Hips
{
	OFFSET 0.000000 0.000000 0.000000
	CHANNELS 6 Xposition Yposition Zposition Zrotation Yrotation Xrotation 
	JOINT LHipJoint
	{
		OFFSET 0.000000 0.000000 0.000000
		CHANNELS 3 Zrotation Yrotation Xrotation
		JOINT LeftUpLeg
		{
			OFFSET 1.363060 -1.794630 0.839290
			CHANNELS 3 Zrotation Yrotation Xrotation
			JOINT LeftLeg
			{
				OFFSET 2.448110 -6.726130 0.000000
				CHANNELS 3 Zrotation Yrotation Xrotation
				JOINT LeftFoot
				{
					OFFSET 2.562200 -7.039590 0.000000
					CHANNELS 3 Zrotation Yrotation Xrotation
					JOINT LeftToeBase
					{
						OFFSET 0.157640 -0.433110 2.322550
						CHANNELS 3 Zrotation Yrotation Xrotation
						End Site
						{
							OFFSET 0.000000 0.000000 0.000000
						}
					}
				}
			}
		}
	}
	JOINT RHipJoint
	{
		OFFSET 0.000000 0.000000 0.000000
		CHANNELS 3 Zrotation Yrotation Xrotation
		JOINT RightUpLeg
		{
			OFFSET -1.305520 -1.794630 0.839290
			CHANNELS 3 Zrotation Yrotation Xrotation
			JOINT RightLeg
			{
				OFFSET -2.542530 -6.985550 0.000000
				CHANNELS 3 Zrotation Yrotation Xrotation
				JOINT RightFoot
				{
					OFFSET -2.568260 -7.056230 0.000000
					CHANNELS 3 Zrotation Yrotation Xrotation
					JOINT RightToeBase
					{
						OFFSET -0.164730 -0.452590 2.363150
						CHANNELS 3 Zrotation Yrotation Xrotation
						End Site
						{
							OFFSET 0.000000 0.000000 0.000000
						}
					}
				}
			}
		}
	}
}
MOTION
Frames: 19
Frame Time: 0.008333
-1.210127 17.495770 -0.506802 7.651229 83.290532 22.619289 -10.454656 2.165345 1.778459 -11.791736 4.674512 -11.259759 -2.857207 -1.307307 1.728654 0.028788 -0.469226 -2.407757 0.121800 -0.000000 -33.776299 9.755787 -0.706230 1.198080 9.949410 0.712193 -40.510114 0.019332 -3.424580 51.940396 -1.706690 -7.457742 -4.645024 -0.760100 0.000000 -29.647000
-0.966112 17.476780 -0.496936 8.191321 83.479264 23.111127 -10.506058 2.247968 1.571906 -11.774577 5.570603 -10.057407 -2.904148 -1.332918 1.214567 -0.041177 -1.097550 -2.472909 0.073600 0.000000 -34.732400 9.599698 -0.640840 1.415272 9.961955 1.147799 -41.313226 0.275832 -3.281571 49.199018 -1.640680 -6.911723 -4.929841 -0.719800 0.000000 -29.236400
-0.722277 17.450827 -0.483709 9.465435 83.720823 24.353413 -10.531894 2.325245 1.376882 -11.786713 6.318918 -8.886678 -2.949722 -1.354693 0.802185 -0.101014 -1.662430 -2.561590 0.034300 -0.000000 -35.753300 9.461536 -0.586961 1.639170 9.859199 1.503046 -42.030633 0.547972 -3.114405 46.157040 -1.542556 -6.239621 -4.953245 -0.703400 -0.000000 -29.118700
-0.478809 17.418516 -0.467373 11.460205 84.002227 26.325715 -10.529282 2.395552 1.187203 -11.821139 6.921712 -7.722028 -2.992749 -1.372279 0.473671 -0.151889 -2.164755 -2.664450 0.003400 0.000000 -36.860500 9.347766 -0.541539 1.866526 9.649101 1.777569 -42.651129 0.832995 -2.919481 42.821708 -1.406655 -5.440712 -4.686093 -0.705600 0.000000 -29.348499
-0.235738 17.380414 -0.448233 14.155979 84.310029 29.002997 -10.494091 2.458881 1.000321 -11.872505 7.380775 -6.546611 -3.032236 -1.385383 0.215291 -0.194414 -2.602864 -2.776686 -0.020000 0.000000 -38.061100 9.265457 -0.499741 2.096533 9.343786 1.971202 -43.171897 1.127868 -2.692490 39.210841 -1.231204 -4.525581 -4.131543 -0.714000 -0.000000 -29.911800
0.007307 17.337151 -0.426647 17.498706 84.630940 32.334360 -10.423834 2.517583 0.817202 -11.934819 7.708645 -5.368955 -3.068350 -1.392970 0.030532 -0.229639 -2.984758 -2.902815 -0.037300 0.000000 -39.353499 9.219838 -0.455379 2.333097 8.961884 2.089433 -43.601587 1.429299 -2.427592 35.348688 -1.019028 -3.514575 -3.326588 -0.711800 0.000000 -30.721900
0.250277 17.289357 -0.403225 21.375758 84.945150 36.195678 -10.319068 2.574625 0.633144 -11.998987 7.927234 -4.172754 -3.100013 -1.392847 -0.090024 -0.257740 -3.310689 -3.042393 -0.049300 -0.000000 -40.722300 9.214079 -0.398383 2.570613 8.524265 2.133675 -43.922849 1.732902 -2.118846 31.263149 -0.775214 -2.428640 -2.323634 -0.681601 -0.000000 -31.756800
0.493386 17.237656 -0.378463 25.659680 85.235157 40.452046 -10.184237 2.634162 0.446694 -12.058416 8.060359 -2.955605 -3.126698 -1.382555 -0.146290 -0.278845 -3.582147 -3.197979 -0.056800 -0.000000 -42.143600 9.247357 -0.318663 2.804199 8.051353 2.106955 -44.123443 2.032668 -1.761544 26.990426 -0.507773 -1.291105 -1.187197 -0.609300 -0.000000 -32.996900
0.737081 17.182689 -0.352709 30.236067 85.488471 44.981057 -10.027420 2.700715 0.258905 -12.108179 8.134257 -1.722815 -3.148405 -1.359632 -0.129443 -0.293328 -3.803600 -3.372891 -0.060500 -0.000001 -43.592100 9.315249 -0.208220 3.028197 7.561934 2.009653 -44.193806 2.321018 -1.354921 22.580223 -0.226473 -0.125125 0.016301 -0.487100 -0.000000 -34.445400
0.981334 17.125045 -0.326461 34.951446 85.691411 49.604652 -9.857976 2.775843 0.066185 -12.143851 8.162768 -0.435811 -3.162714 -1.322394 -0.061763 -0.299941 -3.955509 -3.553799 -0.060700 0.000000 -45.042500 9.410151 -0.058818 3.220844 7.077918 1.828023 -44.103144 2.589517 -0.906925 18.112772 0.059681 1.059226 1.219113 -0.310900 0.000000 -36.122600
1.227101 17.065374 -0.299603 39.776019 85.845538 54.289324 -9.685109 2.863116 -0.122967 -12.164005 8.163408 0.880159 -3.170891 -1.269338 0.083681 -0.299832 -4.048717 -3.742296 -0.058400 0.000000 -46.487800 9.523439 0.129270 3.375119 6.622942 1.549696 -43.872214 2.830714 -0.433047 13.700192 0.340830 2.251295 2.354627 -0.084300 -0.000000 -37.995000
1.474816 17.004461 -0.272285 44.619572 85.950152 58.929308 -9.516735 2.962750 -0.303792 -12.165100 8.134825 2.240291 -3.171268 -1.199984 0.299461 -0.292385 -4.068339 -3.920736 -0.054300 0.000001 -47.933900 9.643994 0.353158 3.471470 6.233126 1.152056 -43.517105 3.041067 0.041682 9.496654 0.610469 3.460360 3.351741 0.187699 0.000000 -40.011100
1.725256 16.943291 -0.244525 49.387952 86.010652 63.429358 -9.360344 3.073885 -0.467369 -12.141834 8.066760 3.634312 -3.162367 -1.114293 0.590555 -0.277376 -4.004820 -4.071337 -0.049300 0.000000 -49.409500 9.758524 0.602015 3.499977 5.950789 0.624856 -43.083903 3.222442 0.490179 5.672084 0.863323 4.694475 4.140472 0.493700 0.000000 -42.070700
1.979222 16.883172 -0.216398 53.943308 86.038254 67.664288 -9.223361 3.193389 -0.604415 -12.086646 7.940918 5.034245 -3.142049 -1.012673 0.965949 -0.254632 -3.850060 -4.173368 -0.044200 0.000000 -50.968200 9.852535 0.857970 3.463560 5.810399 -0.011211 -42.628998 3.379772 0.890500 2.373961 1.093235 5.937014 4.667040 0.811900 0.000000 -44.061000
2.237432 16.825551 -0.187959 58.128964 86.047558 71.503882 -9.111727 3.316630 -0.706889 -11.993398 7.733607 6.396403 -3.107922 -0.895594 1.439612 -0.224170 -3.599258 -4.202594 -0.039399 0.000000 -52.686700 9.914463 1.099198 3.380219 5.817320 -0.693957 -42.200970 3.515923 1.229921 -0.306122 1.290887 7.122559 4.910856 1.107300 -0.000000 -45.871000
2.500515 16.771862 -0.159222 61.798257 86.053518 74.833938 -9.028985 3.438735 -0.769455 -11.862111 7.420470 7.672302 -3.057713 -0.763252 2.027136 -0.186211 -3.250968 -4.130322 -0.034300 -0.000000 -54.658600 9.938741 1.304112 3.277000 5.941910 -1.330383 -41.825381 3.629248 1.503109 -2.337663 1.444812 8.140272 4.892801 1.339200 -0.000000 -47.427700
2.768950 16.723263 -0.130065 64.861342 86.067099 77.598264 -8.974951 3.556483 -0.788385 -11.703340 6.978858 8.811473 -2.990068 -0.615252 2.749038 -0.141347 -2.809251 -3.924912 -0.027200 -0.000001 -56.973800 9.927413 1.455720 3.183138 6.127081 -1.822620 -41.512882 3.714951 1.708085 -3.730784 1.544789 8.865621 4.664663 1.474101 0.000000 -48.670200
3.042910 16.680525 -0.100421 67.252827 86.094355 79.753390 -8.948204 3.668671 -0.763350 -11.531334 6.399080 9.776989 -2.904004 -0.450455 3.625953 -0.090817 -2.286153 -3.550479 -0.015200 0.000001 -59.705600 9.886566 1.542749 3.120987 6.312895 -2.091460 -41.258389 3.767836 1.842878 -4.513025 1.584104 9.196927 4.299802 1.497401 0.000000 -49.598100
3.322284 16.643961 -0.070603 68.887066 86.143640 81.218379 -8.950054 3.775315 -0.701461 -11.346014 5.704911 10.548007 -2.798274 -0.266561 4.682727 -0.037931 -1.716303 -2.967827 0.005200 -0.000001 -62.898200 9.821374 1.559440 3.099820 6.463729 -2.093176 -41.051783 3.785534 1.903732 -4.706265 1.560724 9.086678 3.876311 1.415600 0.000000 -50.236001
